<svg xmlns="http://www.w3.org/2000/svg" viewBox="0 0 853 680.76"><path d="M853 86.82 748.44 141.8s-189.81-113.9-306 90.33C326.26 436.38 585.75 565.95 612.86 562.05l73.58 117.81s-449.25 6.54-445.39-15.71c3.9-22.22 267.25-15.69 267.25-15.69S206.97 469.08 326.25 208.55C448.41-58.26 775.54-15.31 853 86.82" fill="#e1d7c4"/><path d="M.02 355.67c-1.63-9.12 127.21-11.42 127.21-11.42l.71 16.66S1.68 364.84.02 355.67m62.17-218.74c-28.33 125.41 60.36 186.21 60.36 186.21s-5.23-24.42-5.67-50.99c-.41-26.59 2.71-40.55 2.71-40.55-41.93-113.88 56.05-155.9 56.05-155.9s9.5-10.86 35.42-28.64c25.91-17.79 47.26-26.1 47.26-26.1-2.07-9.16-166.88-13.6-196.13 115.96" fill="#3b4c64"/><path d="M160.16 203.46c-41.62 181.13 95.91 294.57 160.27 334.69 0 0-227.05-8-231.18 1.65-5.63 13.14 252.3 11.02 261.09 11.02 0 0-81.92-61.57-83.44-164.52-88.63-234.33 75.69-281.29 75.69-281.29s23.83-37.38 65.51-65.97c41.7-28.59 67.41-36.15 67.41-36.15-3.22-9.5-267.5-7.53-315.35 200.57" fill="#a50d12"/></svg>