<svg xmlns="http://www.w3.org/2000/svg" width="100%" height="100%" viewBox="0 0 25 26" fill-rule="evenodd" stroke-linejoin="round" stroke-miterlimit="2"><path d="M7.569 16.667c4.095 3.994-6.184 4.844-7.36 8.483C.096 20.679 7 18.963 7.336 16.818 4.6 20.077 1.1 19.568.18 23.986c-1.057-2.77 2.807-7.217 4.405-7.643s2.527-.121 2.983.323zm2.649-3.885c-.182 1.129.661 2.021 1.653 1.91-.992 1.727-3.086 3.086-3.086 3.086-.147-.882-1.678-2.039-2.241-1.91 1.184-1.976 2.314-2.645 3.674-3.086zm4.271-4.96C19.493 2.818 24.157-.642 24.899.1s-2.718 5.407-7.721 10.41c-1.362 1.362-2.754 2.555-4.059 3.57a1.57 1.57 0 0 1-2.199-2.199c1.015-1.305 2.208-2.697 3.57-4.059z"/></svg>