<?xml version="1.0" encoding="UTF-8" standalone="no"?>
<!DOCTYPE svg PUBLIC "-//W3C//DTD SVG 1.1//EN" "http://www.w3.org/Graphics/SVG/1.1/DTD/svg11.dtd">
<svg width="100%" height="100%" viewBox="0 0 25 26" version="1.1" xmlns="http://www.w3.org/2000/svg" xmlns:xlink="http://www.w3.org/1999/xlink" xml:space="preserve" xmlns:serif="http://www.serif.com/" style="fill-rule:evenodd;clip-rule:evenodd;stroke-linejoin:round;stroke-miterlimit:2;">
    <g transform="matrix(1,0,0,1,-96.7576,-50.0932)">
        <g transform="matrix(0.0267713,0,0,0.0267713,94.1672,48.7521)">
            <path d="M379.498,672.672C532.48,821.845 148.488,853.62 104.586,989.552C100.361,822.528 358.255,758.441 370.794,678.306C268.601,800.052 137.868,781.047 103.5,946.08C64.008,842.618 208.337,676.503 268.058,660.596C327.779,644.689 362.467,656.066 379.498,672.672ZM478.459,527.553C471.647,569.729 503.161,603.03 540.213,598.913C503.161,663.411 424.94,714.186 424.94,714.186C419.45,681.251 362.271,638.023 341.229,642.826C385.443,569.022 427.684,544.021 478.459,527.553ZM637.992,342.262C824.894,155.359 999.136,26.12 1026.85,53.835C1054.57,81.55 925.327,255.792 738.425,442.694C687.539,493.579 635.538,538.136 586.8,576.039C563.481,594.018 530.438,591.89 509.617,571.069C488.795,550.248 486.668,517.205 504.647,493.886C542.55,445.148 587.107,393.147 637.992,342.262Z"/>
        </g>
    </g>
</svg>
