<?xml version="1.0" encoding="UTF-8" standalone="no"?>
<!DOCTYPE svg PUBLIC "-//W3C//DTD SVG 1.1//EN" "http://www.w3.org/Graphics/SVG/1.1/DTD/svg11.dtd">
<svg width="100%" height="100%" viewBox="0 0 25 25" version="1.1" xmlns="http://www.w3.org/2000/svg" xmlns:xlink="http://www.w3.org/1999/xlink" xml:space="preserve" xmlns:serif="http://www.serif.com/" style="fill-rule:evenodd;clip-rule:evenodd;stroke-linejoin:round;stroke-miterlimit:2;">
    <g transform="matrix(0.504237,0,0,0.504237,-222.843,-170.688)">
        <g transform="matrix(1.05248,0,0,1.05248,-26.0412,-18.767)">
            <path d="M444.644,361.069C445.898,361.036 446.919,360.698 447.708,360.056C448.498,359.413 449.023,358.53 449.283,357.407C449.544,356.284 449.682,354.363 449.698,351.645C449.714,348.927 449.763,347.136 449.845,346.274C449.991,344.907 450.264,343.808 450.663,342.978C451.061,342.148 451.554,341.485 452.14,340.988C452.726,340.492 453.474,340.113 454.386,339.853C455.004,339.69 456.013,339.609 457.413,339.609L458.78,339.609L458.78,343.442L458.023,343.442C456.331,343.442 455.208,343.747 454.654,344.357C454.101,344.968 453.824,346.331 453.824,348.447C453.824,352.711 453.735,355.405 453.556,356.528C453.263,358.269 452.762,359.612 452.054,360.556C451.346,361.5 450.235,362.338 448.722,363.071C450.512,363.819 451.81,364.963 452.616,366.501C453.421,368.039 453.824,370.558 453.824,374.057C453.824,377.231 453.857,379.119 453.922,379.721C454.052,380.828 454.382,381.601 454.911,382.04C455.44,382.48 456.477,382.7 458.023,382.7L458.78,382.7L458.78,386.533L457.413,386.533C455.818,386.533 454.662,386.402 453.946,386.142C452.905,385.768 452.042,385.161 451.358,384.323C450.675,383.485 450.231,382.423 450.028,381.137C449.824,379.851 449.714,377.744 449.698,374.814C449.682,371.884 449.544,369.858 449.283,368.735C449.023,367.612 448.498,366.725 447.708,366.074C446.919,365.423 445.898,365.081 444.644,365.048L444.644,361.069Z" style="fill-rule:nonzero;"/>
        </g>
        <g transform="matrix(1.0566,0,0,1.0566,-25.2931,-20.3241)">
            <path d="M489.127,361.069L489.127,365.048C487.874,365.081 486.852,365.423 486.063,366.074C485.274,366.725 484.749,367.608 484.488,368.723C484.228,369.837 484.089,371.754 484.073,374.472C484.057,377.19 484.008,378.981 483.927,379.843C483.78,381.227 483.508,382.329 483.109,383.151C482.71,383.973 482.218,384.632 481.632,385.129C481.046,385.625 480.297,386.004 479.386,386.264C478.767,386.443 477.758,386.533 476.358,386.533L474.991,386.533L474.991,382.7L475.748,382.7C477.441,382.7 478.564,382.394 479.117,381.784C479.671,381.174 479.947,379.802 479.947,377.67C479.947,373.601 480.02,371.022 480.167,369.931C480.427,368.124 480.948,366.68 481.729,365.598C482.511,364.515 483.617,363.673 485.05,363.071C483.178,362.176 481.86,360.991 481.095,359.518C480.33,358.045 479.947,355.559 479.947,352.06C479.947,348.886 479.907,346.99 479.825,346.371C479.711,345.281 479.39,344.52 478.861,344.089C478.332,343.657 477.294,343.442 475.748,343.442L474.991,343.442L474.991,339.609L476.358,339.609C477.953,339.609 479.109,339.739 479.825,339.999C480.867,340.357 481.729,340.96 482.413,341.806C483.097,342.652 483.54,343.718 483.744,345.004C483.947,346.29 484.057,348.398 484.073,351.328C484.089,354.257 484.228,356.28 484.488,357.394C484.749,358.509 485.274,359.392 486.063,360.043C486.852,360.694 487.874,361.036 489.127,361.069Z" style="fill-rule:nonzero;"/>
        </g>
    </g>
</svg>
