<svg xmlns="http://www.w3.org/2000/svg" width="100%" height="100%" viewBox="0 0 25 25" fill-rule="nonzero" stroke-linejoin="round" stroke-miterlimit="2" ><path d="M-.002 11.468c.665-.018 1.207-.197 1.626-.538s.698-.81.836-1.406.212-1.615.22-3.058l.078-2.85c.077-.725.222-1.309.434-1.749s.473-.792.784-1.056.708-.464 1.192-.602C5.496.122 6.031.08 6.774.08H7.5v2.034h-.402c-.898 0-1.494.162-1.788.486s-.44 1.048-.44 2.171L4.728 9.06c-.155.924-.421 1.637-.797 2.138s-.965.946-1.768 1.335c.95.397 1.639 1.004 2.067 1.82s.641 2.153.641 4.01l.052 3.006c.069.587.244.998.525 1.231s.831.35 1.652.35h.4v2.034h-.725c-.846 0-1.46-.07-1.84-.208-.552-.198-1.01-.521-1.373-.965s-.598-1.008-.706-1.691-.167-1.801-.175-3.356-.082-2.63-.22-3.226-.417-1.067-.836-1.412-.961-.527-1.626-.544V11.47zm25.001-.035v2.12c-.668.018-1.212.2-1.632.547s-.7.817-.839 1.411-.213 1.615-.221 3.063l-.078 2.862c-.078.737-.223 1.324-.436 1.762s-.475.789-.787 1.054-.711.466-1.197.605c-.33.095-.867.143-1.613.143h-.728v-2.042h.403c.902 0 1.5-.163 1.795-.488s.442-1.056.442-2.192l.117-4.123c.139-.963.416-1.732.832-2.309s1.006-1.026 1.769-1.346c-.997-.477-1.7-1.108-2.107-1.893s-.612-2.109-.612-3.973l-.065-3.031c-.061-.581-.232-.986-.514-1.216s-.835-.345-1.659-.345h-.403V0h.728c.85 0 1.466.069 1.847.208a2.99 2.99 0 0 1 1.379.963c.365.451.6 1.019.709 1.704s.167 1.808.175 3.369.083 2.638.221 3.232.419 1.064.839 1.411.965.529 1.632.547z"/></svg>