<svg xmlns="http://www.w3.org/2000/svg" width="100%" height="100%" viewBox="0 0 368 204" fill-rule="evenodd" stroke-linejoin="round" stroke-miterlimit="2" ><path d="M0 187.088c0 9.3 7.5 16.8 16.8 16.8s16.8-7.5 16.8-16.8-7.5-16.8-16.8-16.8-16.8 7.5-16.8 16.8zm201.2-182c-6.6-6.7-17.4-6.8-24.1-.2s-6.8 17.4-.2 24.1l190.5 169.9-166.2-193.8zm-34.5 33c-6.6-6.7-17.4-6.8-24.1-.2s-6.8 17.4-.2 24.1l148.6 123.6-124.3-147.5zm-103.5 102.6c-6.6-6.7-17.4-6.8-24.1-.2s-6.8 17.4-.2 24.1l42.3 17.1-18-41zm68.9-67.5c-6.6-6.7-17.4-6.8-24.1-.2s-6.8 17.4-.2 24.1l107 76.6-82.7-100.5zm-33.7 34.4c-6.6-6.7-17.4-6.8-24.1-.2s-6.8 17.4-.2 24.1l67.4 36.6-43.1-60.5z" fill-rule="nonzero"/></svg>