<?xml version="1.0" encoding="UTF-8" standalone="no"?><!DOCTYPE svg PUBLIC "-//W3C//DTD SVG 1.1//EN" "http://www.w3.org/Graphics/SVG/1.1/DTD/svg11.dtd"><svg width="100%" height="100%" viewBox="0 0 368 204" version="1.1" xmlns="http://www.w3.org/2000/svg" xmlns:xlink="http://www.w3.org/1999/xlink" xml:space="preserve" xmlns:serif="http://www.serif.com/" style="fill-rule:evenodd;clip-rule:evenodd;stroke-linejoin:round;stroke-miterlimit:2;"><path d="M0,187.088c0,9.3 7.5,16.8 16.8,16.8c9.3,0 16.8,-7.5 16.8,-16.8c-0,-9.3 -7.5,-16.8 -16.8,-16.8c-9.3,0 -16.8,7.5 -16.8,16.8Zm201.2,-182c-6.6,-6.7 -17.4,-6.8 -24.1,-0.2c-6.7,6.6 -6.8,17.4 -0.2,24.1l190.5,169.9l-166.2,-193.8Zm-34.5,33c-6.6,-6.7 -17.4,-6.8 -24.1,-0.2c-6.7,6.6 -6.8,17.4 -0.2,24.1l148.6,123.6l-124.3,-147.5Zm-103.5,102.6c-6.6,-6.7 -17.4,-6.8 -24.1,-0.2c-6.7,6.6 -6.8,17.4 -0.2,24.1l42.3,17.1l-18,-41Zm68.9,-67.5c-6.6,-6.7 -17.4,-6.8 -24.1,-0.2c-6.7,6.6 -6.8,17.4 -0.2,24.1l107,76.6l-82.7,-100.5Zm-33.7,34.4c-6.6,-6.7 -17.4,-6.8 -24.1,-0.2c-6.7,6.6 -6.8,17.4 -0.2,24.1l67.4,36.6l-43.1,-60.5Z" style="fill-rule:nonzero;"/></svg>