<svg xmlns="http://www.w3.org/2000/svg" viewBox="0 0 648 576" xmlns:v="http://catsimaginganddesign.com/" class="logo"><path d="M236.5 144.1l-4.6.2 4.6-.2zm57.7 1.3c-43.4-14.1-24.9-3.2-57.6-1.3 14.9-.2 43.5 3.3 49.1 10.9 6.2 8.5 31.3 3.7 8.5-9.6zm67.7-8.8c-16.2 15.5 12 17.6 7.7 15.5-21.7-13.6 18.8-9.6 31.6-22.4-8.8 1.8-23.2-8.5-39.3 6.9zm1.4 35.3c-1.8-9.2-47.5 1.8-44.2 9.6 3.3 7.7 18 13.2 17.3 25.4 12.1 2.6 11.4-.4 14.7.7-6.2-7.7 14.1-12.1 12.2-35.7zm-9.5 103.8c4 1.5-3.7 13.3 12.5-33.1 4.5-12.8 2.5-20.1-2.6-23.8-10.5 12.8-10.7 12.2-12.1-3.4-15.6-.6-35.9 7.6-34.2 7.4 2.9-.4 2.6-2.9 10.7 5.5 21.3 26.1 3.6 26.1 25.7 47.4zM346 300c-28.7 8.1-39.7-1.5-69.6-68.4-2.9 6.6-7-1.5-4-7.4-19.1-4.4-43.1 23.2-23.2 29.8s37.2 39 37.9 45.6c.8 6.7 32.8 22.1 58.9.4zm-35.7-128.4c-7.7-1.8-37.5 12.1-30.9 9.9s36.1 5 30.2 1.8c-9.6-5.1 8.5-9.9.7-11.7zm65.5 2.2c2.2-5.9 18.4-2.5 12.5-7.4-8.5-7-25.8.7-25.4-1.5s-.4-8.1-2.6-11.4-12.5-1.5-7.7.4c4.8 1.8 6.6 11.4 8.5 12.9 1.8 1.5 7-1.5 8.1 4.8 1.1 6.2 4.4 8.1 6.6 2.2zm-201.6 11.8c5.2-2.9 40.8-2.9 58.5-3.3-55.9 29.1-26.9 7.4-53 15.8-26.1 8.5-26.5 18.8-3.7 17.3s94.2-46.4 94.2-46.4c-46.7 5.5-108.9 12.9-96 16.6zM296 350.4c-1.3-.7-2.6-1.5-4-2.4 1.7 1.3 3 2.2 4 2.4zm-49.7-53.7c-58.1-68.1-102.7-30.5-95.7-64.4 28.3-2.6 11.4-9.6 1.5-9.6s-8.8-51.9 46.7-51.5c-13.9 0-3.3-21.4 13.5-25.7-14.7-1-31-14.9-50.6 1.8-36.8 89.4-81 51.9-54.1 70.3 9.2 9.9 46.4 36.4 74.7 48.2-58.5 2.9-59.2-21-64-18.4-30.9 8.5-24.7 33.1-9.2 25.4s30.5 15.1 49.3 9.6c28.4-12.4 94.3 42.1 133.6 65.7-10.8-8.2-34.6-34.9-45.7-51.4zm-26.9-152c-2.5-.1-4.9.2-7.1.7 2.4.2 4.8 0 7.1-.7zM211 70.4c31.7-2.2 47.8 26.1 58.1 42.3s26.1 23.6 10.3-3.7c-21-29.4 46.7 6.6 46.7 6.6l27.2-35c.5-1.5 1.1-1.4 1.1-1.4l-1.1 1.4c-.7 2.2-1.1 7.8 1.1 22.1 3.7 24.3 15.5 10.7 11.4-4.4-4-15.1 3.3-41.2 2.6-44.9s-26.9-25-28.7-18.4 12.9 24.7 12.9 24.7l-3.3 11.4-6.3.4-13.6 21s-16.6-2.9-4.4-7.4c12.1-4.4 1.5-42.3-.7-39.4s-2.6 6.6-4 6.6c-21.7-19.5-2.9-24.7-11.4-35s-108.6-1.1-74.3 6.6c54.1 0 75.1 62.9 75.1 62.9l-6.3 6.3s-16.9-11-28.3-15.5c-13.2 12.5-26.5-6.3-21-9.6-5.5-1.8-3.7-8.5-10.3-14.7-35 19.1-68.8-21-79.1-4 .7 4.1 14.6 23.3 46.3 21.1zm212.7 70.3c2.6 1.8 15.1 1.5 15.5-4s2.6-15.5-6.6-18c-9.2-2.6-32 5.5-32 5.5 18.3-1.2 20.5 14.6 23.1 16.5zm-.4 161.5c9.6-5.5 26.1.7 6.6 7.7-25.8 3.3-47.1 29.1-53.7 37.5 9.6-10.3 62.6-26.9 82.8-38.3 7.7-32.8-59.6-18-26.1-85.7 10.7-15.1 13.6-31.6 3.7-37.2-9.9-5.5-21-23.9-17.7-26.5s9.6-2.2 2.9-5.2c-5.9-2.6-18.9.9-28.2 5.9 2.3-.8-.5 3.2 3.9 0 5.5-4 6.3-1.1 11.8-1.1s2.2 5.5 6.3 14.4c7.7-2.2 4.8 7-5.2 17.3-9.9 10.3-5.5 15.1 1.1 5.9s19.1-12.1 16.9-1.1c21.7-11-4 35.3-4 35.3l-48.6 49.3s2.9 2.2 6.3 11c-40.8 46.7-17.3 37.2-16.2 32.4s33.5-34.2 42.7-31.3c-3.7 0-40.5 28.3-39 36.1 1.5 7.7-36.4 28.7-50.4 28s-20.2-4.8-18.4-.7c1.8 4 19.5 8.1 27.6 6.3 0 3.7 2.9 7 15.5.4 52.9-35.4 27.9-36.5 79.4-60.4zm-29.7-141.6c-.6.2-1.6.7-3.1 1.8l3.1-1.8zM366.3 31c15.5 6.6 29.1 35 29.1 35 3.3-1.8 93.5-17.3 85.4-32.4-8.2-15.1-130-9.2-114.5-2.6zM49.4 96.9c87.9-8.8 111.9 21.3 124.7 0 2.9-4.1-13.6-72.1-86.1-28.7C45.8 89.5 11.9 76.6.9 99.4c-7.4 12.2 34.2-7.3 48.5-2.5zm446.8 261.2c-15.8 17.7-48.9 0-8.1-16.2-23.9-16.6-14-10.7-25.4-18-75.4 1.8-111.9 59.6-111.9 59.6 43.1-34.2 58.1-21 58.1-21s.4 32.4 1.8 15.1c1.5-17.3 22.8-26.5 45.3-31.3-71.4 45.3-21.3 40.5-58.9 60-19.5 10.7-8.8 19.5-5.2 18 3.7-1.5 1.1-7.4 9.2-1.1s18.4.4 30.2-5.5c-4.4 4-19.5 23.9 1.5 20.2 68.1-38.6 23.2-56.3 81-73.2 26.9-8.8-1.4-22.4-17.6-6.6zm102.6 68.1c30.5.7-35.3-7.7-42.7-22.4-15.1-4.4-19.9 9.6-12.5 11.4s-9.6 20.2-9.9 25.8c0-.1 34.6-15.5 65.1-14.8zm-344-43c55.2-2.9-143.5-9.9-42.3-16.6-17.3-14-37.2-21.7-47.5-3.7s-46.7 51.2 15.8 108.6c0 0-48.2-100.9 74-88.3zm-8.9 26.8c36.4-11.8 10.7-22.8-7.4-10.7-18 16.2-51.9 9.6-37.2 63.7.1 0-4.7-47.8 44.6-53zm41.6-4c-4-6.6-40.8 18-40.8 18s44.9-11.4 40.8-18zm29.5 46.3c-32.8-27.2-60.7 12.5-60.7 12.5 12.9-8.1 42.3-5.2 60.7.7-4.4-8.8-15.5-12.9-32.8-12.5 4.1-4.7 12.9-9.1 32.8-.7zm279.6 41.9c9.7 29.6-11.8 24.4-13.5 33.6-1.6 9.2 17.5 7.4 16.1 2s4.8-37.1 4.8-37.1c-.4-.4-3.2-7.8-7.4 1.5zm-41.7 5c-11 13.5-6 14.7-18.2 11.7s12.8 23.9 13.9 13.6c1.2-10.3 4.7-18.1 8.2-19.3 17.8-14.3 4-30.9-3.9-6zm58.4-14.8s11.7 22.4 7.7 33l7.9-7s-10.2-22-15.6-26zm-113-12.8c-.2-.7 8-13.2 7.7-8.2-.3 5.1-6.9 9.3-6.9 9.3 2.8 3.1 15.8-7.4 9.3-14.4s-13.1 10.6-10.1 13.3zm-206.1 47.3c-.4 0-.4.3-.2.9.9-.6 1.2-.9.2-.9zm-4.6 4.3c3.7-.3 2.8 12-7.1 29.7-9.8 17.8 11.3 8.9 21.2-.6 8.8-8.5-8.4-28.2-9.8-32.5-2 1.3-6.8 3.7-4.3 3.4zm38 10.5c2.8 1.8-3.1-12-7.4-12.3s-7.7 4-2.8 13.8 5.5 21.8 5.5 25.1c0 3.4 10.4-1.2 14.7-6.7l-15-19c-2-3.1 2.3-2.8 5-.9zm-78.5-16c-13.8 13.5-14.4 22.1-10.4 25.5s15-1.8 22.4-15.6c0-.1 1.8-23.4-12-9.9zm39.9-119s-3.4-41.1-19.3-57.7c-115.9-58-165.3-85.6-216.2-5.2 20.5 0 42.9 8.9 53.7 17.8 20.9 21.5 14.7 29.1 24.8 7.1 38.9-74.8 157 38 157 38zm-267.1-289c-1.3.4-2.7.8-4 1.4 1.4-.5 2.7-1 4-1.4zm65.9 56.6c4-12.6 54.3-38.9 54.3-38.9C59.6 158 81.3 89.6 21.9 109.7c32.9-9.5 70.6 37.4 65.9 56.6zM468.1 51.9c4-3.3-51.2 36.2-51.2 36.2s20.5 28.8 19.9 21.2c-.6-7.7-12-22.1 31.3-57.4zM310.5 236.1s5.7-13.8 4.1-13.3-9.4 3.2-9.4 3.2l5.3 10.1zm300 222.1c-56.6 21.2-52.9 2.8-50.8-12.7-11.5-12.4-34 13.3-22.8 9.9 11.3-3.5-1.1 9 .2 12.7 1.4 3.7-23 20 0 9.9s36.6 9 36.6 9c16.3-22.8 26.9-15.9 33.8-18.9s15-7.6 3-9.9zm29.2 11.1c-13.8-6.2-20.7-.5-20.7-.5 19.1 1.4 22.8 23.7 22.8 23.7s.9-12.2-2.1-23.2z"/></svg>